<?xml version="1.0" encoding="UTF-8"?>
<svg width="46px" height="77px" viewBox="0 0 25 42" version="1.1" xmlns="http://www.w3.org/2000/svg" xmlns:xlink="http://www.w3.org/1999/xlink">
    <!-- Generator: Sketch 55.2 (78181) - https://sketchapp.com -->
    <desc>Created with Sketch.</desc>
    <defs>
        <rect id="path-1" x="0" y="0" width="25" height="42"></rect>
    </defs>
    <g id="Landings-Here" stroke="none" stroke-width="1" fill="none" fill-rule="evenodd">
        <g id="Cyrsor-Map">
            <mask id="mask-2" fill="white">
                <use xlink:href="#path-1"></use>
            </mask>
            <g id="Background"></g>
            <polygon id="Path-3" mask="url(#mask-2)" points="11.3636364 28.3783784 22.7272727 25.25376 14.6682095 22.7027027"></polygon>
            <path d="M11.4211143,27.7472206 C16.7859376,23.6283185 22.2272727,15.6192791 22.2272727,10.9228378 C22.2272727,5.17329979 17.3664405,0.5 11.3695438,0.5 C11.2756044,0.5 11.1818099,0.501142027 11.0632642,0.50340834 C10.9741428,0.501137352 10.8848684,0.5 10.7954545,0.5 C5.10931101,0.5 0.5,5.10432797 0.5,10.7837838 C0.500035449,10.8172043 0.500035449,10.8172043 0.500212469,10.8505899 L0.500212198,10.8569946 C0.500035402,10.8898995 0.500035402,10.8898995 0.5,10.9228378 C0.5,15.9267133 4.98010932,22.62896 11.4211143,27.7472206 Z" id="Combined-Shape" stroke="#BEA491" fill="#BEA491" fill-rule="nonzero" mask="url(#mask-2)"></path>
            <g id="Group-2" mask="url(#mask-2)" fill="#FFFFFF">
                <g transform="translate(6.818182, 4.540541)">
                    <path d="M2.32160426,2.26069182 C2.00074408,2.4385377 1.88658438,2.74612072 1.97912515,3.18344087 C2.07166592,3.62076103 2.27747513,3.9034174 2.5965528,4.03140998 C2.70839561,4.4816148 2.86244852,4.83788385 3.05871154,5.10021713 C3.35310608,5.49371706 3.78095706,5.83783784 4.38359177,5.83783784 C4.98622649,5.83783784 5.37596258,5.49371706 5.67851261,5.10021713 C5.88021263,4.83788385 6.06742564,4.4816148 6.24015164,4.03140998 C6.51461517,3.91330303 6.69725076,3.63064666 6.7880584,3.18344087 C6.87886604,2.73623509 6.76436763,2.41292174 6.44456317,2.21350084 C6.35954195,1.408304 6.15678667,0.858415282 5.83629735,0.563834678 C5.57518674,0.32383255 5.15046212,-0.00702658144 4.38359177,0.000113638106 C3.74607996,0.00604941891 3.29486836,0.333006577 3.05871154,0.563834678 C2.71188982,0.902830611 2.46618739,1.46844966 2.32160426,2.26069182 Z" id="Path-4"></path>
                    <path d="M3.4355795,5.65657443 C3.49980329,5.66718198 3.64985012,5.72760312 3.88571999,5.83783784 C4.30374164,6.03320191 4.68016941,5.95016587 4.9608404,5.83783784 C5.14795439,5.76295248 5.30651038,5.64964484 5.43650838,5.49791491 L5.44169695,5.50511735 L6.28599687,6.66234692 L7.44100549,7.19834159 C8.14327018,7.43506297 8.54251297,7.69302822 8.63873384,7.97223733 C8.73495472,8.25144645 8.77671405,8.80464702 8.76401184,9.63183905 L8.76401184,11.9008264 C8.77659308,12.2681758 8.62586687,12.6434114 8.31183321,13.026533 C7.99779955,13.4096547 7.58364679,13.6080175 7.06937491,13.6216216 L1.86654676,13.6195841 C1.22937935,13.6186535 0.760395345,13.4209698 0.459594745,13.026533 C0.158794145,12.6320962 0.00839384537,12.2568607 0.00839384537,11.9008264 L0.00839384537,9.63183905 C-0.0213656349,8.63730521 0.0280066736,8.0263829 0.156510771,7.79907212 C0.285014868,7.57176134 0.700589073,7.33426974 1.40323339,7.08659734 L2.69741702,6.66234692 L3.40909091,5.63521432 C3.41791419,5.64242675 3.42674372,5.64954679 3.4355795,5.65657443 Z M3.4355795,5.65657443 C3.42392266,5.65464912 3.41509312,5.65436485 3.40909091,5.65572161 L2.72026062,6.69483082 C2.95240813,6.96171247 3.15270285,7.14023206 3.3211448,7.23038957 C3.48958674,7.32054708 3.77110816,7.42602336 4.16570905,7.5468184 L3.06918663,9.13074117 L4.47441194,10.3627798 L5.88093302,9.13074117 L4.68803451,7.5468184 C5.15096124,7.45075722 5.48222247,7.34528094 5.68181818,7.23038957 C5.8814139,7.1154982 6.07429886,6.91926522 6.26047308,6.64169064 L5.44169695,5.50511735 C5.15750365,5.8733362 4.83384341,6.05744563 4.4707162,6.05744563 C4.11663278,6.05744563 3.77158721,5.9238219 3.4355795,5.65657443 Z" id="Combined-Shape"></path>
                </g>
            </g>
            <ellipse id="Oval" stroke="#BEA491" stroke-width="2" fill="#FFFFFF" mask="url(#mask-2)" cx="11.3636364" cy="31.7837838" rx="3.40909091" ry="3.40540541"></ellipse>
        </g>
    </g>
</svg>